<svg width="200" height="100" viewBox="0 0 200 100" fill="none" xmlns="http://www.w3.org/2000/svg">
<path d="M36.0312 52.6562H24.3125L24.25 45.4688H33.75C35.4583 45.4688 36.8229 45.2812 37.8438 44.9062C38.8646 44.5104 39.6042 43.9375 40.0625 43.1875C40.5417 42.4375 40.7812 41.5 40.7812 40.375C40.7812 39.0833 40.5417 38.0417 40.0625 37.25C39.5833 36.4583 38.8229 35.8854 37.7812 35.5312C36.7604 35.1562 35.4375 34.9688 33.8125 34.9688H28.4375V72H17.4688V26.5H33.8125C36.625 26.5 39.1354 26.7604 41.3438 27.2812C43.5521 27.7812 45.4271 28.5521 46.9688 29.5938C48.5312 30.6354 49.7188 31.9479 50.5312 33.5312C51.3438 35.0938 51.75 36.9375 51.75 39.0625C51.75 40.9167 51.3542 42.6562 50.5625 44.2812C49.7708 45.9062 48.4479 47.2292 46.5938 48.25C44.7604 49.25 42.25 49.7708 39.0625 49.8125L36.0312 52.6562ZM35.5938 72H21.6562L25.4062 63.5625H35.5938C37.0938 63.5625 38.2917 63.3333 39.1875 62.875C40.1042 62.3958 40.7604 61.7708 41.1562 61C41.5729 60.2083 41.7812 59.3333 41.7812 58.375C41.7812 57.2083 41.5833 56.1979 41.1875 55.3438C40.8125 54.4896 40.2083 53.8333 39.375 53.375C38.5417 52.8958 37.4271 52.6562 36.0312 52.6562H26.8125L26.875 45.4688H37.9062L40.4688 48.3438C43.5104 48.2188 45.9167 48.6458 47.6875 49.625C49.4792 50.6042 50.7604 51.8958 51.5312 53.5C52.3021 55.1042 52.6875 56.7812 52.6875 58.5312C52.6875 61.5104 52.0417 64 50.75 66C49.4792 68 47.5729 69.5 45.0312 70.5C42.4896 71.5 39.3438 72 35.5938 72ZM68.9062 46.5625V72H58.375V38.1875H68.2188L68.9062 46.5625ZM78.9062 37.9375L78.7188 47.7188C78.3021 47.6771 77.7396 47.625 77.0312 47.5625C76.3229 47.5 75.7292 47.4688 75.25 47.4688C74.0208 47.4688 72.9583 47.6146 72.0625 47.9062C71.1875 48.1771 70.4583 48.5938 69.875 49.1562C69.3125 49.6979 68.8958 50.3854 68.625 51.2188C68.375 52.0521 68.2604 53.0208 68.2812 54.125L66.375 52.875C66.375 50.6042 66.5938 48.5417 67.0312 46.6875C67.4896 44.8125 68.1354 43.1979 68.9688 41.8438C69.8021 40.4688 70.8125 39.4167 72 38.6875C73.1875 37.9375 74.5208 37.5625 76 37.5625C76.5208 37.5625 77.0312 37.5938 77.5312 37.6562C78.0521 37.7188 78.5104 37.8125 78.9062 37.9375ZM99.1562 63.5V49.5625C99.1562 48.6042 99.0208 47.7812 98.75 47.0938C98.4792 46.4062 98.0521 45.875 97.4688 45.5C96.8854 45.1042 96.1042 44.9062 95.125 44.9062C94.3333 44.9062 93.6562 45.0417 93.0938 45.3125C92.5312 45.5833 92.1042 45.9896 91.8125 46.5312C91.5208 47.0729 91.375 47.7604 91.375 48.5938H80.8438C80.8438 47.0312 81.1875 45.5833 81.875 44.25C82.5833 42.8958 83.5833 41.7188 84.875 40.7188C86.1875 39.7188 87.75 38.9479 89.5625 38.4062C91.3958 37.8438 93.4375 37.5625 95.6875 37.5625C98.375 37.5625 100.771 38.0104 102.875 38.9062C105 39.8021 106.677 41.1458 107.906 42.9375C109.135 44.7083 109.75 46.9375 109.75 49.625V63.4688C109.75 65.6771 109.875 67.3542 110.125 68.5C110.375 69.625 110.729 70.6146 111.188 71.4688V72H100.625C100.125 70.9583 99.75 69.6875 99.5 68.1875C99.2708 66.6667 99.1562 65.1042 99.1562 63.5ZM100.438 51.3438L100.5 56.9688H95.8438C94.8646 56.9688 94.0312 57.1042 93.3438 57.375C92.6771 57.6458 92.1354 58.0208 91.7188 58.5C91.3229 58.9583 91.0312 59.4792 90.8438 60.0625C90.6771 60.6458 90.5938 61.2604 90.5938 61.9062C90.5938 62.5312 90.7396 63.0938 91.0312 63.5938C91.3438 64.0729 91.7604 64.4479 92.2812 64.7188C92.8021 64.9896 93.3854 65.125 94.0312 65.125C95.1979 65.125 96.1875 64.9062 97 64.4688C97.8333 64.0104 98.4688 63.4583 98.9062 62.8125C99.3438 62.1667 99.5625 61.5625 99.5625 61L101.875 65.3125C101.458 66.1458 100.979 66.9896 100.438 67.8438C99.9167 68.6979 99.2604 69.4896 98.4688 70.2188C97.6979 70.9271 96.75 71.5104 95.625 71.9688C94.5 72.4062 93.1354 72.625 91.5312 72.625C89.4479 72.625 87.5312 72.1979 85.7812 71.3438C84.0521 70.4896 82.6667 69.3021 81.625 67.7812C80.5833 66.2396 80.0625 64.4688 80.0625 62.4688C80.0625 60.7188 80.375 59.1562 81 57.7812C81.6458 56.4062 82.6146 55.2396 83.9062 54.2812C85.1979 53.3229 86.8438 52.5938 88.8438 52.0938C90.8438 51.5938 93.1979 51.3438 95.9062 51.3438H100.438ZM125.938 45.4062V72H115.406V38.1875H125.281L125.938 45.4062ZM124.688 53.9375L122.219 54C122.219 51.4167 122.531 49.1146 123.156 47.0938C123.781 45.0521 124.667 43.3229 125.812 41.9062C126.958 40.4896 128.323 39.4167 129.906 38.6875C131.51 37.9375 133.292 37.5625 135.25 37.5625C136.812 37.5625 138.24 37.7917 139.531 38.25C140.844 38.7083 141.969 39.4479 142.906 40.4688C143.865 41.4896 144.594 42.8438 145.094 44.5312C145.615 46.1979 145.875 48.2604 145.875 50.7188V72H135.281V50.6875C135.281 49.3333 135.094 48.3021 134.719 47.5938C134.344 46.8646 133.802 46.3646 133.094 46.0938C132.385 45.8229 131.521 45.6875 130.5 45.6875C129.417 45.6875 128.5 45.8958 127.75 46.3125C127 46.7292 126.396 47.3125 125.938 48.0625C125.5 48.7917 125.177 49.6562 124.969 50.6562C124.781 51.6562 124.688 52.75 124.688 53.9375ZM171.156 64.25V24H181.75V72H172.25L171.156 64.25ZM150.406 55.5V54.8438C150.406 52.2812 150.688 49.9479 151.25 47.8438C151.812 45.7188 152.646 43.8958 153.75 42.375C154.854 40.8333 156.229 39.6458 157.875 38.8125C159.521 37.9792 161.417 37.5625 163.562 37.5625C165.479 37.5625 167.156 38.0104 168.594 38.9062C170.031 39.7812 171.26 41.0104 172.281 42.5938C173.302 44.1771 174.135 46.0312 174.781 48.1562C175.427 50.2604 175.917 52.5312 176.25 54.9688V55.75C175.917 58.0417 175.427 60.2083 174.781 62.25C174.135 64.2708 173.302 66.0625 172.281 67.625C171.26 69.1875 170.021 70.4167 168.562 71.3125C167.125 72.1875 165.438 72.625 163.5 72.625C161.354 72.625 159.458 72.1979 157.812 71.3438C156.188 70.4896 154.823 69.2917 153.719 67.75C152.635 66.2083 151.812 64.3958 151.25 62.3125C150.688 60.2292 150.406 57.9583 150.406 55.5ZM160.938 54.8438V55.5C160.938 56.7708 161.021 57.9479 161.188 59.0312C161.354 60.1146 161.635 61.0729 162.031 61.9062C162.448 62.7188 162.99 63.3542 163.656 63.8125C164.344 64.2708 165.188 64.5 166.188 64.5C167.542 64.5 168.656 64.1771 169.531 63.5312C170.427 62.8854 171.083 61.9688 171.5 60.7812C171.938 59.5938 172.125 58.1979 172.062 56.5938V54.125C172.104 52.75 172.01 51.5417 171.781 50.5C171.552 49.4375 171.188 48.5521 170.688 47.8438C170.208 47.1354 169.594 46.6042 168.844 46.25C168.115 45.875 167.25 45.6875 166.25 45.6875C165.271 45.6875 164.438 45.9167 163.75 46.375C163.083 46.8333 162.542 47.4792 162.125 48.3125C161.708 49.125 161.406 50.0938 161.219 51.2188C161.031 52.3229 160.938 53.5312 160.938 54.8438Z" fill="#171717"/>
</svg>
