<svg width="140" height="48" viewBox="0 0 140 48" fill="none" xmlns="http://www.w3.org/2000/svg">
<g clip-path="url(#clip0_1_66)">
<path d="M36.6872 21.0658C36.0039 21.7521 35.4807 22.5805 35.1547 23.4917C34.8287 24.403 34.7081 25.3749 34.8013 26.3381L34.7689 26.3057C34.8648 27.4395 34.7115 28.5804 34.3201 29.6491C33.9287 30.7176 33.3085 31.688 32.5028 32.4926C31.6969 33.297 30.725 33.9164 29.6546 34.307C28.5844 34.6978 27.4415 34.8508 26.306 34.755L26.3385 34.7874C24.9802 34.6613 23.6159 34.9563 22.4316 35.6326C21.2474 36.3088 20.3009 37.3332 19.7213 38.5663C19.1417 39.7993 18.9569 41.1806 19.1923 42.5224C19.428 43.8639 20.0721 45.1004 21.0372 46.063C22.0023 47.0257 23.2413 47.6678 24.5852 47.9016C25.9292 48.1356 27.3126 47.9498 28.5471 47.37C29.7815 46.7901 30.8066 45.8443 31.4829 44.6614C32.1592 43.4784 32.4536 42.1161 32.3259 40.76L32.3602 40.7924C32.2643 39.6587 32.4173 38.5177 32.8088 37.449C33.2002 36.3805 33.8206 35.4101 34.6263 34.6055C35.4322 33.801 36.4041 33.1816 37.4743 32.791C38.5447 32.4002 39.6874 32.2472 40.823 32.343L40.7888 32.3106C41.8983 32.4101 43.0152 32.2285 44.0358 31.7825C45.0563 31.3364 45.9476 30.6403 46.627 29.7589C47.3063 28.8774 47.752 27.8388 47.9222 26.7397C48.0925 25.6404 47.9822 24.5161 47.6014 23.4706C47.2207 22.4253 46.5817 21.4929 45.7439 20.7598C44.9061 20.0266 43.8965 19.5165 42.8086 19.2767C41.7207 19.037 40.5897 19.0751 39.5206 19.3878C38.4515 19.7006 37.4788 20.2777 36.6926 21.0658H36.6872Z" fill="#3B82F6"/>
<path d="M23.3871 30.5429L23.3529 30.5105C24.318 30.6076 25.2926 30.4893 26.2065 30.1642C27.1202 29.8391 27.9503 29.3155 28.6365 28.6309C29.3225 27.9464 29.8478 27.118 30.174 26.2059C30.5003 25.2939 30.6195 24.3209 30.523 23.3572L30.5573 23.3896C30.4614 22.2558 30.6146 21.1149 31.0058 20.0462C31.3972 18.9777 32.0176 18.0073 32.8233 17.2027C33.6292 16.3983 34.6012 15.7789 35.6714 15.3883C36.7418 14.9974 37.8845 14.8445 39.0201 14.9402L38.9859 14.9078C40.3444 15.0353 41.709 14.7411 42.8938 14.0656C44.0789 13.3901 45.0261 12.3661 45.6067 11.1333C46.1872 9.90056 46.3727 8.51898 46.138 7.17704C45.9033 5.83509 45.2596 4.59814 44.2947 3.63487C43.33 2.67162 42.091 2.02894 40.7469 1.79454C39.4029 1.56012 38.0191 1.74536 36.7843 2.32501C35.5495 2.90464 34.524 3.85046 33.8474 5.03347C33.1708 6.21645 32.8762 7.57902 33.0038 8.93531L32.9714 8.90111C33.0675 10.0349 32.9146 11.176 32.5233 12.2448C32.1321 13.3135 31.5117 14.284 30.706 15.0887C29.9001 15.8932 28.928 16.5126 27.8576 16.9032C26.787 17.2938 25.6442 17.4464 24.5085 17.3505L24.541 17.3847C23.5759 17.2877 22.6011 17.4059 21.6873 17.731C20.7736 18.0559 19.9436 18.5797 19.2574 19.2643C18.5712 19.9488 18.046 20.7772 17.7197 21.6893C17.3935 22.6014 17.2744 23.5743 17.3708 24.538L17.3384 24.5056C17.4339 25.6393 17.2805 26.7801 16.8891 27.8486C16.4975 28.917 15.8773 29.8874 15.0716 30.6918C14.2658 31.4962 13.2939 32.1154 12.2238 32.5064C11.1537 32.8972 10.011 33.0504 8.87553 32.955L8.90798 32.9874C7.54952 32.8599 6.18478 33.1541 4.99989 33.8296C3.81502 34.5052 2.86768 35.529 2.28713 36.7619C1.70656 37.9947 1.521 39.3762 1.7558 40.7182C1.99059 42.0601 2.6343 43.2971 3.59909 44.2603C4.56389 45.2237 5.80281 45.8663 7.1469 46.1006C8.49098 46.335 9.87477 46.1498 11.1095 45.5702C12.3443 44.9906 13.3699 44.0448 14.0464 42.8618C14.7231 41.6787 15.0177 40.3162 14.89 38.9599L14.9243 38.9923C14.8284 37.8585 14.9816 36.7176 15.373 35.6489C15.7642 34.5804 16.3846 33.61 17.1903 32.8054C17.9962 32.001 18.9682 31.3816 20.0384 30.991C21.1088 30.6002 22.2515 30.4472 23.3871 30.5429Z" fill="#3B82F6"/>
<path d="M11.304 26.9303C11.9874 26.2441 12.5105 25.4157 12.8362 24.5044C13.1619 23.593 13.282 22.621 13.1881 21.658L13.2223 21.6904C13.1264 20.5563 13.2796 19.4149 13.6712 18.3461C14.0628 17.2772 14.6834 16.3066 15.4897 15.502C16.2959 14.6974 17.2682 14.0783 18.339 13.6877C19.4097 13.2972 20.5529 13.1447 21.6888 13.241L21.6545 13.2086C23.0125 13.3356 24.3767 13.0413 25.5611 12.3659C26.7454 11.6905 27.6921 10.6667 28.2725 9.43435C28.8526 8.20193 29.038 6.82086 28.8032 5.47942C28.5685 4.13798 27.9249 2.9015 26.9605 1.93858C25.9961 0.975674 24.7575 0.333205 23.414 0.0988048C22.0705 -0.135614 20.6871 0.0494658 19.4528 0.628753C18.2184 1.20804 17.1931 2.15337 16.5166 3.33581C15.84 4.51825 15.5452 5.88027 15.6725 7.23609L15.64 7.20369C15.7359 8.33744 15.5827 9.47843 15.1913 10.547C14.7999 11.6156 14.1797 12.586 13.3739 13.3905C12.5681 14.1951 11.5961 14.8143 10.5258 15.205C9.45554 15.5958 8.31275 15.7488 7.17719 15.6531L7.20964 15.6855C6.10008 15.5861 4.98334 15.7681 3.96293 16.2143C2.94252 16.6605 2.05143 17.3568 1.37226 18.2384C0.693089 19.1199 0.247807 20.1585 0.0776492 21.2576C-0.0924911 22.3569 0.0180091 23.4812 0.398909 24.5263C0.779809 25.5716 1.41881 26.5038 2.25668 27.2368C3.09454 27.97 4.10417 28.4799 5.19201 28.7197C6.27983 28.9593 7.41066 28.9209 8.47973 28.6083C9.54878 28.2954 10.5215 27.7183 11.3076 26.9303H11.304Z" fill="#3B82F6"/>
<path d="M66.75 24.3594H60.9844L60.9531 21.9375H66.1875C67.0521 21.9375 67.8073 21.7917 68.4531 21.5C69.099 21.2083 69.599 20.7917 69.9531 20.25C70.3177 19.6979 70.5 19.0417 70.5 18.2812C70.5 17.4479 70.3385 16.7708 70.0156 16.25C69.7031 15.7188 69.2188 15.3333 68.5625 15.0938C67.9167 14.8438 67.0938 14.7188 66.0938 14.7188H61.6562V35H58.6406V12.25H66.0938C67.2604 12.25 68.3021 12.3698 69.2188 12.6094C70.1354 12.8385 70.9115 13.2031 71.5469 13.7031C72.1927 14.1927 72.6823 14.8177 73.0156 15.5781C73.349 16.3385 73.5156 17.25 73.5156 18.3125C73.5156 19.25 73.276 20.099 72.7969 20.8594C72.3177 21.6094 71.651 22.224 70.7969 22.7031C69.9531 23.1823 68.9635 23.4896 67.8281 23.625L66.75 24.3594ZM66.6094 35H59.7969L61.5 32.5469H66.6094C67.5677 32.5469 68.3802 32.3802 69.0469 32.0469C69.724 31.7135 70.2396 31.2448 70.5938 30.6406C70.9479 30.026 71.125 29.3021 71.125 28.4688C71.125 27.625 70.974 26.8958 70.6719 26.2812C70.3698 25.6667 69.8958 25.1927 69.25 24.8594C68.6042 24.526 67.7708 24.3594 66.75 24.3594H62.4531L62.4844 21.9375H68.3594L69 22.8125C70.0938 22.9062 71.0208 23.2188 71.7812 23.75C72.5417 24.2708 73.1198 24.9375 73.5156 25.75C73.9219 26.5625 74.125 27.4583 74.125 28.4375C74.125 29.8542 73.8125 31.0521 73.1875 32.0312C72.5729 33 71.7031 33.7396 70.5781 34.25C69.4531 34.75 68.1302 35 66.6094 35ZM81.0312 20.75V35H78.1406V18.0938H80.9531L81.0312 20.75ZM86.3125 18L86.2969 20.6875C86.0573 20.6354 85.8281 20.6042 85.6094 20.5938C85.401 20.5729 85.1615 20.5625 84.8906 20.5625C84.224 20.5625 83.6354 20.6667 83.125 20.875C82.6146 21.0833 82.1823 21.375 81.8281 21.75C81.474 22.125 81.1927 22.5729 80.9844 23.0938C80.7865 23.6042 80.6562 24.1667 80.5938 24.7812L79.7812 25.25C79.7812 24.2292 79.8802 23.2708 80.0781 22.375C80.2865 21.4792 80.6042 20.6875 81.0312 20C81.4583 19.3021 82 18.7604 82.6562 18.375C83.3229 17.9792 84.1146 17.7812 85.0312 17.7812C85.2396 17.7812 85.4792 17.8073 85.75 17.8594C86.0208 17.901 86.2083 17.9479 86.3125 18ZM98.3281 32.1094V23.4062C98.3281 22.7396 98.1927 22.1615 97.9219 21.6719C97.6615 21.1719 97.2656 20.7865 96.7344 20.5156C96.2031 20.2448 95.5469 20.1094 94.7656 20.1094C94.0365 20.1094 93.3958 20.2344 92.8438 20.4844C92.3021 20.7344 91.875 21.0625 91.5625 21.4688C91.2604 21.875 91.1094 22.3125 91.1094 22.7812H88.2188C88.2188 22.1771 88.375 21.5781 88.6875 20.9844C89 20.3906 89.4479 19.8542 90.0312 19.375C90.625 18.8854 91.3333 18.5 92.1562 18.2188C92.9896 17.9271 93.9167 17.7812 94.9375 17.7812C96.1667 17.7812 97.25 17.9896 98.1875 18.4062C99.1354 18.8229 99.875 19.4531 100.406 20.2969C100.948 21.1302 101.219 22.1771 101.219 23.4375V31.3125C101.219 31.875 101.266 32.474 101.359 33.1094C101.464 33.7448 101.615 34.2917 101.812 34.75V35H98.7969C98.651 34.6667 98.5365 34.224 98.4531 33.6719C98.3698 33.1094 98.3281 32.5885 98.3281 32.1094ZM98.8281 24.75L98.8594 26.7812H95.9375C95.1146 26.7812 94.3802 26.849 93.7344 26.9844C93.0885 27.1094 92.5469 27.3021 92.1094 27.5625C91.6719 27.8229 91.3385 28.151 91.1094 28.5469C90.8802 28.9323 90.7656 29.3854 90.7656 29.9062C90.7656 30.4375 90.8854 30.9219 91.125 31.3594C91.3646 31.7969 91.724 32.1458 92.2031 32.4062C92.6927 32.6562 93.2917 32.7812 94 32.7812C94.8854 32.7812 95.6667 32.5938 96.3438 32.2188C97.0208 31.8438 97.5573 31.3854 97.9531 30.8438C98.3594 30.3021 98.5781 29.776 98.6094 29.2656L99.8438 30.6562C99.7708 31.0938 99.5729 31.5781 99.25 32.1094C98.9271 32.6406 98.4948 33.151 97.9531 33.6406C97.4219 34.1198 96.7865 34.5208 96.0469 34.8438C95.3177 35.1562 94.4948 35.3125 93.5781 35.3125C92.4323 35.3125 91.4271 35.0885 90.5625 34.6406C89.7083 34.1927 89.0417 33.5938 88.5625 32.8438C88.0938 32.0833 87.8594 31.2344 87.8594 30.2969C87.8594 29.3906 88.0365 28.5938 88.3906 27.9062C88.7448 27.2083 89.2552 26.6302 89.9219 26.1719C90.5885 25.7031 91.3906 25.349 92.3281 25.1094C93.2656 24.8698 94.3125 24.75 95.4688 24.75H98.8281ZM108.656 21.7031V35H105.766V18.0938H108.5L108.656 21.7031ZM107.969 25.9062L106.766 25.8594C106.776 24.7031 106.948 23.6354 107.281 22.6562C107.615 21.6667 108.083 20.8073 108.688 20.0781C109.292 19.349 110.01 18.7865 110.844 18.3906C111.688 17.9844 112.62 17.7812 113.641 17.7812C114.474 17.7812 115.224 17.8958 115.891 18.125C116.557 18.3438 117.125 18.6979 117.594 19.1875C118.073 19.6771 118.438 20.3125 118.688 21.0938C118.938 21.8646 119.062 22.8073 119.062 23.9219V35H116.156V23.8906C116.156 23.0052 116.026 22.2969 115.766 21.7656C115.505 21.224 115.125 20.8333 114.625 20.5938C114.125 20.3438 113.51 20.2188 112.781 20.2188C112.062 20.2188 111.406 20.3698 110.812 20.6719C110.229 20.974 109.724 21.3906 109.297 21.9219C108.88 22.4531 108.552 23.0625 108.312 23.75C108.083 24.4271 107.969 25.1458 107.969 25.9062ZM134.109 31.7188V11H137.016V35H134.359L134.109 31.7188ZM122.734 26.7344V26.4062C122.734 25.1146 122.891 23.9427 123.203 22.8906C123.526 21.8281 123.979 20.9167 124.562 20.1562C125.156 19.3958 125.859 18.8125 126.672 18.4062C127.495 17.9896 128.411 17.7812 129.422 17.7812C130.484 17.7812 131.411 17.9688 132.203 18.3438C133.005 18.7083 133.682 19.2448 134.234 19.9531C134.797 20.651 135.24 21.4948 135.562 22.4844C135.885 23.474 136.109 24.5938 136.234 25.8438V27.2812C136.12 28.5208 135.896 29.6354 135.562 30.625C135.24 31.6146 134.797 32.4583 134.234 33.1562C133.682 33.8542 133.005 34.3906 132.203 34.7656C131.401 35.1302 130.464 35.3125 129.391 35.3125C128.401 35.3125 127.495 35.099 126.672 34.6719C125.859 34.2448 125.156 33.6458 124.562 32.875C123.979 32.1042 123.526 31.1979 123.203 30.1562C122.891 29.1042 122.734 27.9635 122.734 26.7344ZM125.641 26.4062V26.7344C125.641 27.5781 125.724 28.3698 125.891 29.1094C126.068 29.849 126.339 30.5 126.703 31.0625C127.068 31.625 127.531 32.0677 128.094 32.3906C128.656 32.7031 129.328 32.8594 130.109 32.8594C131.068 32.8594 131.854 32.6562 132.469 32.25C133.094 31.8438 133.594 31.3073 133.969 30.6406C134.344 29.974 134.635 29.25 134.844 28.4688V24.7031C134.719 24.1302 134.536 23.5781 134.297 23.0469C134.068 22.5052 133.766 22.026 133.391 21.6094C133.026 21.1823 132.573 20.8438 132.031 20.5938C131.5 20.3438 130.87 20.2188 130.141 20.2188C129.349 20.2188 128.667 20.3854 128.094 20.7188C127.531 21.0417 127.068 21.4896 126.703 22.0625C126.339 22.625 126.068 23.2812 125.891 24.0312C125.724 24.7708 125.641 25.5625 125.641 26.4062Z" fill="#262626"/>
</g>
<defs>
<clipPath id="clip0_1_66">
<rect width="140" height="48" fill="white"/>
</clipPath>
</defs>
</svg>
